<svg width="52" height="52" viewBox="0 0 52 52" fill="none" xmlns="http://www.w3.org/2000/svg">
<g id="BsFileEarmarkRichtextFill">
<path id="Vector" d="M30.2023 0H13C11.2761 0 9.62279 0.68482 8.40381 1.90381C7.18482 3.12279 6.5 4.77609 6.5 6.5V45.5C6.5 47.2239 7.18482 48.8772 8.40381 50.0962C9.62279 51.3152 11.2761 52 13 52H39C40.7239 52 42.3772 51.3152 43.5962 50.0962C44.8152 48.8772 45.5 47.2239 45.5 45.5V15.2977C45.4998 14.4359 45.1573 13.6094 44.5477 13L32.5 0.95225C31.8906 0.342715 31.0641 0.000184072 30.2023 0V0ZM30.875 11.375V4.875L40.625 14.625H34.125C33.263 14.625 32.4364 14.2826 31.8269 13.6731C31.2174 13.0636 30.875 12.237 30.875 11.375ZM22.75 20.3125C22.75 20.6326 22.687 20.9496 22.5645 21.2453C22.442 21.541 22.2624 21.8097 22.0361 22.0361C21.8097 22.2624 21.541 22.442 21.2453 22.5645C20.9496 22.687 20.6326 22.75 20.3125 22.75C19.9924 22.75 19.6754 22.687 19.3797 22.5645C19.084 22.442 18.8153 22.2624 18.5889 22.0361C18.3626 21.8097 18.183 21.541 18.0605 21.2453C17.938 20.9496 17.875 20.6326 17.875 20.3125C17.875 19.666 18.1318 19.046 18.5889 18.5889C19.046 18.1318 19.666 17.875 20.3125 17.875C20.959 17.875 21.579 18.1318 22.0361 18.5889C22.4932 19.046 22.75 19.666 22.75 20.3125V20.3125ZM19.9517 25.324L24.2742 28.2035L30.2997 22.1747C30.4204 22.0538 30.5761 21.9739 30.7447 21.9465C30.9133 21.9191 31.0863 21.9455 31.239 22.022L37.375 25.1875V30.875C37.375 31.306 37.2038 31.7193 36.899 32.024C36.5943 32.3288 36.181 32.5 35.75 32.5H16.25C15.819 32.5 15.4057 32.3288 15.101 32.024C14.7962 31.7193 14.625 31.306 14.625 30.875V29.25C14.625 29.25 19.63 25.1095 19.9517 25.324ZM16.25 35.75H35.75C36.181 35.75 36.5943 35.9212 36.899 36.226C37.2038 36.5307 37.375 36.944 37.375 37.375C37.375 37.806 37.2038 38.2193 36.899 38.524C36.5943 38.8288 36.181 39 35.75 39H16.25C15.819 39 15.4057 38.8288 15.101 38.524C14.7962 38.2193 14.625 37.806 14.625 37.375C14.625 36.944 14.7962 36.5307 15.101 36.226C15.4057 35.9212 15.819 35.75 16.25 35.75V35.75ZM16.25 42.25H26C26.431 42.25 26.8443 42.4212 27.149 42.726C27.4538 43.0307 27.625 43.444 27.625 43.875C27.625 44.306 27.4538 44.7193 27.149 45.024C26.8443 45.3288 26.431 45.5 26 45.5H16.25C15.819 45.5 15.4057 45.3288 15.101 45.024C14.7962 44.7193 14.625 44.306 14.625 43.875C14.625 43.444 14.7962 43.0307 15.101 42.726C15.4057 42.4212 15.819 42.25 16.25 42.25V42.25Z" fill="#FEEBCB"/>
</g>
</svg>
